# xmcd
#
# Track frame offsets:
# 150
# 11132
# 29377
# 40920
# 53335
# 60810
# 76442
# 93047
# 105657
# 116822
# 130532
# 143160
# 154537
# 166677
# 181995
# 197737
# 213602
# 230017
# 249220
# 262987
#
# Disc length: 3681 seconds
#
#
# Revision: 1
# Processed by: cddbd v1.5.2PL0 Copyright (c) Steve Scherf et al.
# Submitted via: FreeRIP 2.951 
#
DISCID=f70e5f14
DTITLE=Waylon Jennings - This Time, The Ramblin' Man, Dreaming My Dreams [CD1)
DYEAR=2000
DGENRE=Country
TTITLE0=This Time
TTITLE1=Louisiana Women
TTITLE2=Pick Up The Tempo
TTITLE3=Slow Rollin' Low
TTITLE4=Heaven Or Hell
TTITLE5=It's Not Supposed To be That Way
TTITLE6=Slow Movin' Outlaw
TTITLE7=Mona
TTITLE8=Walkin'
TTITLE9=If I Could Touch Her At All
TTITLE10=I'm A Ramblin' Man
TTITLE11=Rainy Day Woman
TTITLE12=Cloudy Days
TTITLE13=Midnight Rider
TTITLE14=Oklahoma Sunshine
TTITLE15=The Hunger
TTITLE16=I Can't Keep My Hands Off Of You
TTITLE17=Memories Of You And I
TTITLE18=It'll Be Her
TTITLE19=Amanda
EXTD=YEAR: 2000 ID3G: 2
EXTT0=
EXTT1=
EXTT2=
EXTT3=
EXTT4=
EXTT5=
EXTT6=
EXTT7=
EXTT8=
EXTT9=
EXTT10=
EXTT11=
EXTT12=
EXTT13=
EXTT14=
EXTT15=
EXTT16=
EXTT17=
EXTT18=
EXTT19=
PLAYORDER=
